<svg width="80" height="80" viewBox="0 0 80 80" fill="none" xmlns="http://www.w3.org/2000/svg">
<g clip-path="url(#clip0)">
<path d="M77.5962 44.6659L71.8879 41.2395L73.0506 40.0745C80.2924 33.0615 82.041 22.5147 77.5092 13.2015C73.0095 3.96155 63.6893 -1.14486 53.8337 0.228425C42.5132 1.44842 35.4592 10.3245 33.6784 18.0722C29.9149 32.1533 35.5938 48.0423 32.6163 58.2775C31.5588 62.4844 28.5698 65.3797 24.5413 65.8397C19.7304 66.5126 16.5306 63.56 15.1024 60.5983C13.6604 57.632 13.3629 53.2695 16.8648 49.8981L18.0549 48.7056L21.4882 54.4208C22.0009 55.2722 23.0263 55.7048 23.9601 55.5125C24.9351 55.3156 25.6767 54.5283 25.8187 53.5464L29.1329 30.3447C29.3576 28.7865 27.9999 27.4644 26.4824 27.6919L3.27822 31.0061C2.294 31.148 1.50665 31.8895 1.30978 32.8623C1.11291 33.8351 1.55244 34.8261 2.40384 35.3365L8.11212 38.763L6.94947 39.928C-0.292407 46.9409 -2.041 57.4878 2.49087 66.8009C6.99478 76.0551 16.336 81.1358 26.1663 79.7739C37.5051 78.5517 44.4312 69.6436 46.1706 61.9761C49.9624 47.8876 44.2659 31.9331 47.2463 21.6878C48.3038 17.4809 51.4302 14.6228 55.4585 14.1628C60.2515 13.4898 63.4649 16.4425 64.8978 19.4042C66.3398 22.3705 66.6373 26.733 63.1354 30.1044L61.9452 31.2969L58.512 25.5817C57.9993 24.7303 56.9785 24.3045 56.0401 24.49C55.0651 24.6869 54.3235 25.4742 54.1815 26.4561L50.8674 49.6578C50.6407 51.23 52.019 52.5383 53.5179 52.3106L76.722 48.9964C77.7062 48.8545 78.4935 48.1129 78.6904 47.1401C78.8873 46.1673 78.4476 45.1762 77.5962 44.6659Z" fill="url(#paint0_linear)"/>
</g>
<defs>
<linearGradient id="paint0_linear" x1="40.0001" y1="79.9926" x2="40.0001" y2="0.00732993" gradientUnits="userSpaceOnUse">
<stop stop-color="#5558FF"/>
<stop offset="1" stop-color="#00C0FF"/>
</linearGradient>
<clipPath id="clip0">
<rect width="80" height="80" fill="white"/>
</clipPath>
</defs>
</svg>
