<svg width="80" height="80" viewBox="0 0 80 80" fill="none" xmlns="http://www.w3.org/2000/svg">
<path d="M80 40C80 39.5742 79.8856 39.1577 79.6658 38.7938L65.6033 15.3562C65.1822 14.6514 64.4177 14.2188 63.5938 14.2188H11.7188C5.25516 14.2188 0 19.4761 0 25.9375V58.75C0 60.0455 1.04828 61.0938 2.34375 61.0938H77.6562C78.9517 61.0938 80 60.0455 80 58.75V51.7188L75.3125 49.375L80 47.0312V40Z" fill="url(#paint0_linear)"/>
<path d="M72.9688 47.0312C71.6733 47.0312 70.625 48.0795 70.625 49.375C70.625 50.6705 71.6733 51.7188 72.9688 51.7188H80V47.0312H72.9688ZM16.4062 51.7188C12.5291 51.7188 9.375 54.8728 9.375 58.75C9.375 62.6272 12.5291 65.7812 16.4062 65.7812C20.2834 65.7812 23.4375 62.6272 23.4375 58.75C23.4375 54.8728 20.2834 51.7188 16.4062 51.7188ZM35.1562 23.5938H28.125V30.625C28.125 31.9205 27.0767 32.9688 25.7812 32.9688C24.4858 32.9688 23.4375 31.9205 23.4375 30.625V23.5938H16.4062C15.1108 23.5938 14.0625 24.642 14.0625 25.9375V44.6875C14.0625 45.983 15.1108 47.0312 16.4062 47.0312H35.1562C36.4517 47.0312 37.5 45.983 37.5 44.6875V25.9375C37.5 24.642 36.4517 23.5938 35.1562 23.5938ZM63.5938 51.7188C59.7166 51.7188 56.5625 54.8728 56.5625 58.75C56.5625 62.6272 59.7166 65.7812 63.5938 65.7812C67.4709 65.7812 70.625 62.6272 70.625 58.75C70.625 54.8728 67.4709 51.7188 63.5938 51.7188ZM65.0786 23.5938H49.375C48.0806 23.5938 47.0312 24.6431 47.0312 25.9375V37.6562C47.0312 38.9506 48.0806 40 49.375 40H74.9225L65.0786 23.5938Z" fill="url(#paint1_linear)"/>
<defs>
<linearGradient id="paint0_linear" x1="40.0001" y1="61.0938" x2="40.0001" y2="14.2188" gradientUnits="userSpaceOnUse">
<stop stop-color="#5558FF"/>
<stop offset="1" stop-color="#00C0FF"/>
</linearGradient>
<linearGradient id="paint1_linear" x1="44.6875" y1="65.7812" x2="44.6875" y2="23.5938" gradientUnits="userSpaceOnUse">
<stop stop-color="#61A7F6"/>
<stop offset="1" stop-color="#F0FDFA"/>
</linearGradient>
</defs>
</svg>
