<svg width="80" height="80" viewBox="0 0 80 80" fill="none" xmlns="http://www.w3.org/2000/svg">
<path d="M80 44.6875C80 44.4998 79.9531 44.3125 79.9531 44.125L63.5938 39.4375L58.9062 23.5938H49.375C48.0623 23.5938 47.0312 24.6248 47.0312 25.9375V47.0312H4.6875C2.10938 47.0312 0 49.1406 0 51.7188V63.4375C0 64.7498 1.03109 65.7812 2.34375 65.7812C12.6497 65.7131 11.4441 65.9006 12.3388 65.6625C13.1258 67.1177 14.6053 68.125 16.4062 68.125C18.2087 68.125 19.6895 67.1164 20.4761 65.6594C21.1331 65.8381 25.743 65.838 26.3992 65.6594C27.1858 67.1164 28.6663 68.125 30.4688 68.125C32.2697 68.125 33.7495 67.1177 34.5366 65.6625C34.7394 65.7166 34.94 65.7812 35.1562 65.7812H58.9062C59.1225 65.7812 59.3228 65.7166 59.5266 65.6625C60.3133 67.1177 61.7925 68.125 63.5938 68.125C65.395 68.125 66.8748 67.1177 67.6616 65.6625C68.5539 65.9 67.3541 65.7131 77.6562 65.7812C78.9689 65.7812 80 64.7498 80 63.4375V56.4062L75.3125 54.0625L80 51.7188V44.6875Z" fill="url(#paint0_linear)"/>
<path d="M75.2656 25.375C74.9841 24.3436 74.0469 23.5938 72.9688 23.5938H58.9062V44.125H79.9531L75.2656 25.375ZM16.4062 56.4062C12.5155 56.4062 9.375 59.5469 9.375 63.4375C9.375 67.328 12.5155 70.4688 16.4062 70.4688C20.297 70.4688 23.4375 67.328 23.4375 63.4375C23.4375 59.5469 20.297 56.4062 16.4062 56.4062ZM16.4062 65.7812C15.0936 65.7812 14.0625 64.7498 14.0625 63.4375C14.0625 62.1248 15.0936 61.0938 16.4062 61.0938C17.7189 61.0938 18.75 62.1248 18.75 63.4375C18.75 64.7498 17.7189 65.7812 16.4062 65.7812ZM30.4688 56.4062C26.578 56.4062 23.4375 59.5469 23.4375 63.4375C23.4375 67.328 26.578 70.4688 30.4688 70.4688C34.3595 70.4688 37.5 67.328 37.5 63.4375C37.5 59.5469 34.3595 56.4062 30.4688 56.4062ZM30.4688 65.7812C29.1561 65.7812 28.125 64.7498 28.125 63.4375C28.125 62.1248 29.1561 61.0938 30.4688 61.0938C31.7814 61.0938 32.8125 62.1248 32.8125 63.4375C32.8125 64.7498 31.7814 65.7812 30.4688 65.7812ZM63.5938 56.4062C59.7028 56.4062 56.5625 59.5469 56.5625 63.4375C56.5625 67.328 59.7028 70.4688 63.5938 70.4688C67.4847 70.4688 70.625 67.328 70.625 63.4375C70.625 59.5469 67.4847 56.4062 63.5938 56.4062ZM63.5938 65.7812C62.2811 65.7812 61.25 64.7498 61.25 63.4375C61.25 62.1248 62.2811 61.0938 63.5938 61.0938C64.9064 61.0938 65.9375 62.1248 65.9375 63.4375C65.9375 64.7498 64.9064 65.7812 63.5938 65.7812ZM72.9688 51.7188C71.6561 51.7188 70.625 52.7498 70.625 54.0625C70.625 55.3748 71.6561 56.4062 72.9688 56.4062H80V51.7188H72.9688ZM49.375 9.53125H2.34375C1.04937 9.53125 0 10.5806 0 11.875V51.7188H49.375C50.6694 51.7188 51.7188 50.6694 51.7188 49.375V11.875C51.7188 10.5806 50.6694 9.53125 49.375 9.53125Z" fill="url(#paint1_linear)"/>
<defs>
<linearGradient id="paint0_linear" x1="40.0001" y1="68.125" x2="40.0001" y2="23.5938" gradientUnits="userSpaceOnUse">
<stop stop-color="#5558FF"/>
<stop offset="1" stop-color="#00C0FF"/>
</linearGradient>
<linearGradient id="paint1_linear" x1="40" y1="70.4688" x2="40" y2="9.53125" gradientUnits="userSpaceOnUse">
<stop stop-color="#61A7F6"/>
<stop offset="1" stop-color="#F0FDFA"/>
</linearGradient>
</defs>
</svg>
