<svg width="80" height="80" viewBox="0 0 80 80" fill="none" xmlns="http://www.w3.org/2000/svg">
<g clip-path="url(#clip0)">
<path d="M79.3139 14.9048L46.2361 33.9492H33.7637L0.686094 14.9048C0.262031 15.3287 0 15.9146 0 16.5624V63.4374C0 64.7329 1.04828 65.7812 2.34375 65.7812H77.6562C78.9517 65.7812 80 64.7329 80 63.4374V16.5624C80 15.9146 79.738 15.3287 79.3139 14.9048Z" fill="url(#paint0_linear)"/>
<path d="M69.6263 52.2612L52.7234 38.1747L79.3138 14.9048C78.8899 14.4808 78.304 14.2188 77.6562 14.2188H2.34369C1.69588 14.2188 1.10994 14.4808 0.686035 14.9048L27.2767 38.1747L10.3735 52.2612C9.38025 53.0898 9.2451 54.5684 10.0737 55.5641C10.9013 56.5548 12.3751 56.6931 13.3765 55.8639L30.8393 41.3109L38.4513 48.0117C39.3368 48.7911 40.6632 48.7911 41.5487 48.0117L49.161 41.3106L66.6235 55.8638C67.626 56.6938 69.0995 56.5536 69.9263 55.5639C70.7548 54.5683 70.6198 53.0897 69.6263 52.2612Z" fill="url(#paint1_linear)"/>
</g>
<defs>
<linearGradient id="paint0_linear" x1="40" y1="65.7812" x2="40" y2="14.9048" gradientUnits="userSpaceOnUse">
<stop stop-color="#00B59C"/>
<stop offset="1" stop-color="#9CFFAC"/>
</linearGradient>
<linearGradient id="paint1_linear" x1="39.9999" y1="56.4062" x2="39.9999" y2="14.2188" gradientUnits="userSpaceOnUse">
<stop stop-color="#C3FFE8"/>
<stop offset="0.9973" stop-color="#F0FFF4"/>
</linearGradient>
<clipPath id="clip0">
<rect width="80" height="80" fill="white"/>
</clipPath>
</defs>
</svg>
