<svg width="120" height="120" viewBox="0 0 120 120" fill="none" xmlns="http://www.w3.org/2000/svg">
<g clip-path="url(#clip0)">
<path d="M88.3574 28.1277H3.51553C1.57402 28.1277 0 29.7017 0 31.6432V116.485C0 118.426 1.57402 120 3.51553 120H88.357C89.2895 120 90.1836 119.63 90.8427 118.97C91.5019 118.311 91.8725 117.417 91.8725 116.485L91.873 31.6432C91.873 30.7109 91.5027 29.8168 90.8431 29.1573C90.1841 28.498 89.2897 28.1277 88.3574 28.1277ZM115.879 4.12132C110.383 -1.37462 101.486 -1.37228 95.9903 4.12132L91.0194 9.09228L94.4505 15.9405L103.122 24.3778L110.908 28.9808L115.879 24.0098C121.375 18.5139 121.372 9.61727 115.879 4.12132Z" fill="url(#paint0_linear)"/>
<path d="M91.0194 9.0921C89.7512 10.3603 62.9064 37.2074 61.6038 38.51C50.6588 49.4527 42.0762 62.8363 36.6693 77.3449H17.5777C15.6362 77.3449 14.0621 78.9189 14.0621 80.8605C14.0621 82.802 15.6362 84.376 17.5777 84.376H39.1396C39.5314 84.376 39.9416 84.3033 40.288 84.1838C55.7071 78.8496 69.9544 69.9342 81.49 58.3986L110.908 28.9806L91.0194 9.0921Z" fill="url(#paint1_linear)"/>
</g>
<defs>
<linearGradient id="paint0_linear" x1="60.0001" y1="120" x2="60.0001" y2="0.000344276" gradientUnits="userSpaceOnUse">
<stop stop-color="#5558FF"/>
<stop offset="1" stop-color="#00C0FF"/>
</linearGradient>
<linearGradient id="paint1_linear" x1="62.485" y1="84.376" x2="62.485" y2="9.0921" gradientUnits="userSpaceOnUse">
<stop stop-color="#61A7F6"/>
<stop offset="1" stop-color="#F0FDFA"/>
</linearGradient>
<clipPath id="clip0">
<rect width="120" height="120" fill="white"/>
</clipPath>
</defs>
</svg>
