<svg width="80" height="80" viewBox="0 0 80 80" fill="none" xmlns="http://www.w3.org/2000/svg">
<path d="M80 47.0312C80 43.1405 76.8595 40 72.9688 40H65.0469L57.6405 25.1408C56.4217 22.75 54.0314 21.25 51.3125 21.25H47.1875L45.0294 16.5625L42.5 21.25H23.75L21.6383 16.5625L19.0625 21.25H16.7188C12.828 21.25 9.6875 24.3905 9.6875 28.2812V30.625L4.6875 42.3438L9.6875 54.0625V61.0938C9.6875 62.4064 10.7186 63.4375 12.0312 63.4375H21.4062C22.7189 63.4375 23.75 62.4064 23.75 61.0938C23.75 59.7811 24.7811 58.75 26.0938 58.75C27.4064 58.75 28.4375 59.7811 28.4375 61.0938C28.4375 62.4064 29.4686 63.4375 30.7812 63.4375H58.9062C60.2189 63.4375 61.25 62.4064 61.25 61.0938C61.25 59.7811 62.2811 58.75 63.5938 58.75C64.9064 58.75 65.9375 59.7811 65.9375 61.0938C65.9375 62.4064 66.9686 63.4375 68.2812 63.4375H77.6562C78.9689 63.4375 80 62.4064 80 61.0938V54.0625L75.3125 51.7188L80 49.375V47.0312Z" fill="url(#paint0_linear)"/>
<path d="M19.0625 21.25H23.75V16.5625H42.5V21.25H47.1875V16.5625H49.5312C50.8439 16.5625 51.875 15.5314 51.875 14.2188C51.875 12.9061 50.8439 11.875 49.5312 11.875H16.7188C15.4061 11.875 14.375 12.9061 14.375 14.2188C14.375 15.5314 15.4061 16.5625 16.7188 16.5625H19.0625V21.25ZM0 32.9688V51.7188C0 53.0314 1.03109 54.0625 2.34375 54.0625H9.6875V30.625H2.34375C1.03109 30.625 0 31.6561 0 32.9688ZM26.0938 54.0625C22.2166 54.0625 19.0625 57.2166 19.0625 61.0938C19.0625 64.9709 22.2166 68.125 26.0938 68.125C29.9709 68.125 33.125 64.9709 33.125 61.0938C33.125 57.2166 29.9709 54.0625 26.0938 54.0625ZM63.5938 54.0625C59.7166 54.0625 56.5625 57.2166 56.5625 61.0938C56.5625 64.9709 59.7166 68.125 63.5938 68.125C67.4709 68.125 70.625 64.9709 70.625 61.0938C70.625 57.2166 67.4709 54.0625 63.5938 54.0625ZM50.5223 31.9205C50.1241 31.1262 49.3139 30.625 48.4258 30.625H21.4062C20.1108 30.625 19.0625 31.6733 19.0625 32.9688V42.3438C19.0625 43.6392 20.1108 44.6875 21.4062 44.6875H53.1133C53.9256 44.6875 54.6789 44.2664 55.1069 43.5752C55.5348 42.8839 55.5737 42.0211 55.2098 41.2955L50.5223 31.9205ZM33.125 40H23.75V35.3125H33.125V40ZM37.8125 40V35.3125H46.9769L49.3206 40H37.8125ZM72.9688 49.375C71.6561 49.375 70.625 50.4061 70.625 51.7188C70.625 53.0314 71.6561 54.0625 72.9688 54.0625H80V49.375H72.9688Z" fill="url(#paint1_linear)"/>
<defs>
<linearGradient id="paint0_linear" x1="42.3438" y1="63.4375" x2="42.3438" y2="16.5625" gradientUnits="userSpaceOnUse">
<stop stop-color="#5558FF"/>
<stop offset="1" stop-color="#00C0FF"/>
</linearGradient>
<linearGradient id="paint1_linear" x1="40" y1="68.125" x2="40" y2="11.875" gradientUnits="userSpaceOnUse">
<stop stop-color="#61A7F6"/>
<stop offset="1" stop-color="#F0FDFA"/>
</linearGradient>
</defs>
</svg>
