<svg width="171" height="171" viewBox="0 0 171 171" fill="none" xmlns="http://www.w3.org/2000/svg">
<g clip-path="url(#clip0)">
<path d="M83.9277 31.1867C82.9176 29.4372 80.678 28.8371 78.9285 29.8472C77.1791 30.8572 76.579 33.0969 77.589 34.8463L77.6451 34.9435C85.9193 49.2748 66.0611 70.2045 51.9054 79.1678L48.0204 88.5411L60.0971 109.459L70.2791 110.992C93.6481 98.7649 115.68 100.821 121.448 110.813L121.504 110.91C122.515 112.66 124.754 113.26 126.504 112.25C128.253 111.24 128.853 109 127.843 107.25L111.375 78.7266L111.95 71.9151L106.46 62.4072L100.396 59.7106L83.9277 31.1867ZM132.58 49.581L126.241 53.2406C124.491 54.2511 123.891 56.4894 124.901 58.2397C125.912 59.99 128.15 60.5898 129.9 59.5792L136.239 55.9196C137.989 54.9091 138.589 52.6708 137.579 50.9205C136.568 49.1702 134.33 48.5704 132.58 49.581ZM113.828 43.7163L115.723 36.6464C116.246 34.6941 115.088 32.6875 113.135 32.1643C111.183 31.6412 109.176 32.7996 108.653 34.7521L106.759 41.822C106.236 43.7742 107.394 45.7809 109.346 46.304C111.299 46.8271 113.305 45.6684 113.828 43.7163ZM131.943 75.0909C129.991 74.5679 127.984 75.7265 127.46 77.6786C126.937 79.631 128.096 81.6375 130.048 82.1607L137.118 84.0549C139.07 84.578 141.077 83.4193 141.6 81.4672C142.123 79.5149 140.965 77.5083 139.013 76.9851L131.943 75.0909Z" fill="url(#paint0_linear)"/>
<path d="M36.0965 88.3824C27.3577 93.4278 24.3548 104.641 29.399 113.378C33.8173 121.031 42.9669 124.284 51.0411 121.586L64.034 144.091C67.0605 149.333 73.7893 151.136 79.0314 148.109C84.2735 145.083 86.0764 138.354 83.0499 133.112L51.9053 79.1678C50.8809 79.8185 49.8366 80.4495 48.7738 81.0631L36.0965 88.3824ZM103.565 57.8808L100.396 59.7106L111.375 78.7266L114.544 76.8968C119.787 73.8699 121.59 67.1421 118.563 61.8994C115.536 56.6567 108.808 54.8539 103.565 57.8808Z" fill="url(#paint1_linear)"/>
</g>
<defs>
<linearGradient id="paint0_linear" x1="119.637" y1="116.214" x2="72.0617" y2="33.8118" gradientUnits="userSpaceOnUse">
<stop stop-color="#61A7F6"/>
<stop offset="1" stop-color="#F0FDFA"/>
</linearGradient>
<linearGradient id="paint1_linear" x1="101.428" y1="135.179" x2="64.7941" y2="71.7266" gradientUnits="userSpaceOnUse">
<stop stop-color="#5558FF"/>
<stop offset="1" stop-color="#00C0FF"/>
</linearGradient>
<clipPath id="clip0">
<rect width="124.915" height="124.915" fill="white" transform="translate(0 62.4575) rotate(-30)"/>
</clipPath>
</defs>
</svg>
