<svg width="80" height="80" viewBox="0 0 80 80" fill="none" xmlns="http://www.w3.org/2000/svg">
<g clip-path="url(#clip0)">
<path d="M68.1231 0H49.3711C42.9087 0 37.6511 5.2576 37.6511 11.72V21.2523C37.6511 26.9121 41.6842 31.6478 47.0271 32.7368V37.6603C47.0271 38.5482 47.5287 39.3597 48.3228 39.7569C49.1157 40.1534 50.0662 40.069 50.7775 39.5355L59.5284 32.9723H68.1231C74.6029 32.9723 79.9994 27.7308 79.9994 21.2523V11.72C79.9994 5.24025 74.6018 0 68.1231 0ZM72.9127 62.9468L56.3381 51.0602C55.566 50.5064 54.5357 50.4735 53.73 50.9772L44.3916 56.8125C43.8894 56.9088 41.7062 56.5001 37.485 53.4443C33.9358 50.8753 30.1324 47.2782 27.311 43.8224C23.1304 38.7017 22.8188 36.1198 23.0482 35.541L28.9114 26.1584C29.415 25.3526 29.3822 24.3225 28.8284 23.5502L16.9415 6.97575C16.5404 6.41647 15.9137 6.06174 15.2279 6.00564C14.5426 5.94954 13.866 6.1977 13.3792 6.68431L4.82691 15.236C-0.0176724 20.0803 -1.36625 27.4567 1.47108 33.5916C5.26508 41.7945 10.1906 49.3745 16.1109 56.1212C24.5742 65.7657 34.8044 73.3398 46.5176 78.6331C52.5145 81.3434 59.77 79.9433 64.5694 75.1437L73.2041 66.5092C73.6907 66.0224 73.939 65.3465 73.8829 64.6605C73.8267 63.9745 73.4719 63.3479 72.9127 62.9468Z" fill="url(#paint0_linear)"/>
<path d="M49.3711 14.2202C48.0766 14.2202 47.0271 15.2697 47.0271 16.5642C47.0271 17.8587 48.0766 18.9082 49.3711 18.9082C50.6656 18.9082 51.7151 17.8587 51.7151 16.5642C51.7151 15.2697 50.6658 14.2202 49.3711 14.2202ZM58.7471 14.2202C57.4526 14.2202 56.4031 15.2697 56.4031 16.5642C56.4031 17.8587 57.4526 18.9082 58.7471 18.9082C60.0416 18.9082 61.0911 17.8587 61.0911 16.5642C61.0911 15.2697 60.0418 14.2202 58.7471 14.2202ZM68.1231 14.2202C66.8286 14.2202 65.7791 15.2697 65.7791 16.5642C65.7791 17.8587 66.8286 18.9082 68.1231 18.9082C69.4176 18.9082 70.4671 17.8587 70.4671 16.5642C70.4671 15.2697 69.4178 14.2202 68.1231 14.2202Z" fill="url(#paint1_linear)"/>
</g>
<defs>
<linearGradient id="paint0_linear" x1="40.0001" y1="80" x2="40.0001" y2="0" gradientUnits="userSpaceOnUse">
<stop stop-color="#5558FF"/>
<stop offset="1" stop-color="#00C0FF"/>
</linearGradient>
<linearGradient id="paint1_linear" x1="58.7471" y1="18.9082" x2="58.7471" y2="14.2202" gradientUnits="userSpaceOnUse">
<stop stop-color="#ADDCFF"/>
<stop offset="0.5028" stop-color="#EAF6FF"/>
<stop offset="1" stop-color="#EAF6FF"/>
</linearGradient>
<clipPath id="clip0">
<rect width="80" height="80" fill="white"/>
</clipPath>
</defs>
</svg>
