<svg width="80" height="80" viewBox="0 0 80 80" fill="none" xmlns="http://www.w3.org/2000/svg">
<path d="M49.5312 9.53125C45.1733 9.53125 40.9986 10.4216 37.135 12.1725L11.0745 23.7975C10.2506 24.1659 9.70578 24.9808 9.6875 25.8848C9.66922 26.7912 10.1727 27.6289 10.983 28.0341L16.1648 30.625L1.29547 37.9034C0.503594 38.3017 0 39.1119 0 40C0 40.8881 0.503594 41.6983 1.29547 42.0966L16.1648 49.375L10.983 51.9659C10.1727 52.3711 9.66922 53.2088 9.6875 54.1152C9.70578 55.0192 10.2506 55.8341 11.0745 56.2025L37.1259 67.8228C40.9986 69.5784 45.1733 70.4688 49.5312 70.4688C66.3313 70.4688 80 56.8 80 40C80 23.2 66.3313 9.53125 49.5312 9.53125Z" fill="url(#paint0_linear)"/>
<path d="M49.5312 18.9062C37.9064 18.9062 28.4375 28.3748 28.4375 40C28.4375 51.6248 37.9064 61.0938 49.5312 61.0938C61.1561 61.0938 70.625 51.6248 70.625 40C70.625 28.3748 61.1561 18.9062 49.5312 18.9062ZM58.9062 42.3438H49.5312C48.2186 42.3438 47.1875 41.3123 47.1875 40V30.625C47.1875 29.3123 48.2186 28.2812 49.5312 28.2812C50.8439 28.2812 51.875 29.3123 51.875 30.625V37.6562H58.9062C60.2189 37.6562 61.25 38.6873 61.25 40C61.25 41.3123 60.2189 42.3438 58.9062 42.3438Z" fill="url(#paint1_linear)"/>
<defs>
<linearGradient id="paint0_linear" x1="40.0001" y1="70.4688" x2="40.0001" y2="9.5313" gradientUnits="userSpaceOnUse">
<stop stop-color="#5558FF"/>
<stop offset="1" stop-color="#00C0FF"/>
</linearGradient>
<linearGradient id="paint1_linear" x1="49.5312" y1="61.0938" x2="49.5312" y2="18.9062" gradientUnits="userSpaceOnUse">
<stop stop-color="#61A7F6"/>
<stop offset="1" stop-color="#F0FDFA"/>
</linearGradient>
</defs>
</svg>
