<svg width="166" height="141" viewBox="0 0 166 141" fill="none" xmlns="http://www.w3.org/2000/svg">
<g opacity="0.2" clip-path="url(#clip0)">
<path fill-rule="evenodd" clip-rule="evenodd" d="M0.727997 118.978C25.482 106.744 37.8589 92.3688 37.8589 75.8525C27.308 74.6291 18.5833 70.2961 11.6846 62.8536C4.78598 55.411 1.3367 46.7962 1.3367 37.0087C1.3367 26.6095 4.68452 17.8417 11.3803 10.705C18.076 3.5683 26.4964 0 36.6415 0C48.004 0 57.8446 4.63879 66.1635 13.9165C74.4825 23.1942 78.6419 34.4598 78.6419 47.7137C78.6419 87.4753 56.526 118.57 12.2934 141L0.727997 118.978ZM88.0861 118.978C113.043 106.744 125.521 92.3688 125.521 75.8525C114.767 74.6291 105.941 70.2961 99.0427 62.8536C92.144 55.411 88.6948 46.7962 88.6948 37.0087C88.6948 26.6095 92.0933 17.8417 98.8905 10.705C105.688 3.5683 114.159 0 124.304 0C135.666 0 145.456 4.63879 153.674 13.9165C161.891 23.1942 166 34.4598 166 47.7137C166 87.4753 143.985 118.57 99.9558 141L88.0861 118.978Z" fill="#2468E6"/>
</g>
<defs>
<clipPath id="clip0">
<rect width="166" height="141" fill="white" transform="translate(166 141) rotate(-180)"/>
</clipPath>
</defs>
</svg>
