<svg width="80" height="80" viewBox="0 0 80 80" fill="none" xmlns="http://www.w3.org/2000/svg">
<path d="M40 65.7812C54.2386 65.7812 65.7812 54.2386 65.7812 40C65.7812 25.7614 54.2386 14.2188 40 14.2188C25.7614 14.2188 14.2188 25.7614 14.2188 40C14.2188 54.2386 25.7614 65.7812 40 65.7812Z" fill="url(#paint0_linear)"/>
<path d="M77.6562 37.6562H75.0375C73.8745 20.1419 59.8581 6.12547 42.3438 4.9625V2.34375C42.3438 1.04828 41.2955 0 40 0C38.7045 0 37.6562 1.04828 37.6562 2.34375V4.9625C20.1419 6.12547 6.12547 20.1419 4.9625 37.6562H2.34375C1.04828 37.6562 0 38.7045 0 40C0 41.2955 1.04828 42.3438 2.34375 42.3438H4.9625C6.12547 59.8581 20.1419 73.8745 37.6562 75.0375V77.6562C37.6562 78.9517 38.7045 80 40 80C41.2955 80 42.3438 78.9517 42.3438 77.6562V75.0375C59.8581 73.8745 73.8745 59.8581 75.0375 42.3438H77.6562C78.9517 42.3438 80 41.2955 80 40C80 38.7045 78.9517 37.6562 77.6562 37.6562ZM63.4375 42.3438L70.35 42.3422C69.205 57.2716 57.2731 69.205 42.3438 70.35V63.4375C42.3438 62.142 41.2955 61.0938 40 61.0938C38.7045 61.0938 37.6562 62.142 37.6562 63.4375V70.35C22.7269 69.205 10.795 57.2731 9.65 42.3438H16.5625C17.858 42.3438 18.9062 41.2955 18.9062 40C18.9062 38.7045 17.858 37.6562 16.5625 37.6562H9.65C10.795 22.7269 22.7269 10.795 37.6562 9.65V16.5625C37.6562 17.858 38.7045 18.9062 40 18.9062C41.2955 18.9062 42.3438 17.858 42.3438 16.5625V9.65C57.2731 10.795 69.205 22.7269 70.35 37.6562H63.4375C62.142 37.6562 61.0938 38.7045 61.0938 40C61.0938 41.2955 62.142 42.3438 63.4375 42.3438ZM40 28.2812C33.5364 28.2812 28.2812 33.5386 28.2812 40C28.2812 46.4614 33.5364 51.7188 40 51.7188C46.4636 51.7188 51.7188 46.4614 51.7188 40C51.7188 33.5386 46.4636 28.2812 40 28.2812Z" fill="url(#paint1_linear)"/>
<defs>
<linearGradient id="paint0_linear" x1="40" y1="65.7812" x2="40" y2="14.2188" gradientUnits="userSpaceOnUse">
<stop stop-color="#61A7F6"/>
<stop offset="1" stop-color="#F0FDFA"/>
</linearGradient>
<linearGradient id="paint1_linear" x1="40.0001" y1="80.0001" x2="40.0001" y2="6.67572e-05" gradientUnits="userSpaceOnUse">
<stop stop-color="#5558FF"/>
<stop offset="1" stop-color="#00C0FF"/>
</linearGradient>
</defs>
</svg>
