<svg width="80" height="80" viewBox="0 0 80 80" fill="none" xmlns="http://www.w3.org/2000/svg">
<path d="M80 37.6562C80 36.3436 78.9689 35.3125 77.6562 35.3125H70.1564L56.5625 30.625L51.875 16.5625H40.1562C38.8436 16.5625 37.8125 17.5936 37.8125 18.9062V35.3125H32.8125L30.5152 30.625L28.125 35.3125H18.75L16.4062 30.625L14.0625 35.3125H4.6875L2.32063 30.625L0 35.3125V44.6875L4.6875 47.0312L0 49.375V56.4062C0 57.7189 1.03109 58.75 2.34375 58.75H11.7188C13.0314 58.75 14.0625 57.7189 14.0625 56.4062C14.0625 55.0936 15.0936 54.0625 16.4062 54.0625C17.7189 54.0625 18.75 55.0936 18.75 56.4062C18.75 57.7189 19.7811 58.75 21.0938 58.75H54.2188C55.5314 58.75 56.5625 57.7189 56.5625 56.4062C56.5625 55.0936 57.5936 54.0625 58.9062 54.0625C60.2189 54.0625 61.25 55.0936 61.25 56.4062C61.25 57.7189 62.2811 58.75 63.5938 58.75H77.6562C78.9689 58.75 80 57.7189 80 56.4062V49.375L75.3125 47.0312L80 44.6875V37.6562Z" fill="url(#paint0_linear)"/>
<path d="M30.4688 21.25C29.1561 21.25 28.125 22.2811 28.125 23.5938V25.9375H18.75V23.5938C18.75 22.2811 17.7189 21.25 16.4062 21.25C15.0936 21.25 14.0625 22.2811 14.0625 23.5938V25.9375H4.6875V23.5938C4.6875 22.2811 3.65641 21.25 2.34375 21.25C1.03109 21.25 0 22.2811 0 23.5938V35.3125H4.6875V30.625H14.0625V35.3125H18.75V30.625H28.125V35.3125H32.8125V23.5938C32.8125 22.2811 31.7814 21.25 30.4688 21.25ZM63.5938 16.5625H51.875V35.3125H70.1564L65.8906 18.3438C65.6094 17.3123 64.6717 16.5625 63.5938 16.5625ZM16.4062 49.375C12.5291 49.375 9.375 52.5291 9.375 56.4062C9.375 60.2834 12.5291 63.4375 16.4062 63.4375C20.2834 63.4375 23.4375 60.2834 23.4375 56.4062C23.4375 52.5291 20.2834 49.375 16.4062 49.375ZM58.9062 49.375C55.0291 49.375 51.875 52.5291 51.875 56.4062C51.875 60.2834 55.0291 63.4375 58.9062 63.4375C62.7834 63.4375 65.9375 60.2834 65.9375 56.4062C65.9375 52.5291 62.7834 49.375 58.9062 49.375ZM72.9688 44.6875C71.6561 44.6875 70.625 45.7186 70.625 47.0312C70.625 48.3439 71.6561 49.375 72.9688 49.375H80V44.6875H72.9688ZM7.03125 44.6875H0V49.375H7.03125C8.34391 49.375 9.375 48.3439 9.375 47.0312C9.375 45.7186 8.34391 44.6875 7.03125 44.6875Z" fill="url(#paint1_linear)"/>
<defs>
<linearGradient id="paint0_linear" x1="40.0001" y1="58.75" x2="40.0001" y2="16.5625" gradientUnits="userSpaceOnUse">
<stop stop-color="#5558FF"/>
<stop offset="1" stop-color="#00C0FF"/>
</linearGradient>
<linearGradient id="paint1_linear" x1="40" y1="63.4375" x2="40" y2="16.5625" gradientUnits="userSpaceOnUse">
<stop stop-color="#61A7F6"/>
<stop offset="1" stop-color="#F0FDFA"/>
</linearGradient>
</defs>
</svg>
