<svg width="80" height="80" viewBox="0 0 80 80" fill="none" xmlns="http://www.w3.org/2000/svg">
<g clip-path="url(#clip0)">
<path d="M39.9219 0C17.9514 0 0.0778809 18.0298 0.0778809 40.0002C0.0778809 46.5417 1.69148 53.0008 4.74932 58.7342L1.52664 75.6534C1.38242 76.4156 1.62273 77.2006 2.17211 77.75C2.72149 78.2994 3.50649 78.535 4.26869 78.3955L21.1877 75.1728C26.9212 78.2306 33.3803 80.0002 39.9217 80.0002C61.8922 80.0002 79.922 61.9708 79.922 40.0004C79.922 18.0299 61.8923 0 39.9219 0V0Z" fill="url(#paint0_linear)"/>
<path d="M64.559 51.3506C64.1927 49.0916 62.8104 47.2102 60.7641 46.187L53.3208 42.4654C52.4167 42.01 51.325 42.1862 50.6155 42.905L47.8139 45.7087C46.6306 45.7911 43.3643 45.5965 39.0155 41.2478C34.6644 36.899 34.4561 33.6213 34.5546 32.4494L37.3583 29.6479C38.0724 28.936 38.2487 27.8443 37.7979 26.9425L34.0763 19.4992C33.0532 17.4553 31.1741 16.0706 28.9172 15.7043C26.6444 15.3473 24.4333 16.0545 22.8151 17.6728L18.7043 21.7836C17.3424 23.1455 16.6101 24.9674 16.6398 26.9197C16.7176 31.4172 18.4342 40.5543 29.0705 51.1928C38.7202 60.8426 48.2258 62.9895 53.0369 63.4106C55.0975 63.5917 57.1636 62.8752 58.6605 61.3759L62.5904 57.4482C64.2088 55.8299 64.9252 53.6074 64.559 51.3506Z" fill="url(#paint1_linear)"/>
</g>
<defs>
<linearGradient id="paint0_linear" x1="40" y1="80" x2="40" y2="0" gradientUnits="userSpaceOnUse">
<stop stop-color="#00B59C"/>
<stop offset="1" stop-color="#9CFFAC"/>
</linearGradient>
<linearGradient id="paint1_linear" x1="40.646" y1="63.4381" x2="40.646" y2="15.6137" gradientUnits="userSpaceOnUse">
<stop stop-color="#C3FFE8"/>
<stop offset="0.9973" stop-color="#F0FFF4"/>
</linearGradient>
<clipPath id="clip0">
<rect width="80" height="80" fill="white"/>
</clipPath>
</defs>
</svg>
