<svg width="80" height="80" viewBox="0 0 80 80" fill="none" xmlns="http://www.w3.org/2000/svg">
<g clip-path="url(#clip0)">
<path d="M39.922 0C17.9515 0 0.0780029 18.0298 0.0780029 40.0002C0.0780029 46.5417 1.69161 53.0008 4.74944 58.7342L1.52676 75.6534C1.38254 76.4156 1.62286 77.2006 2.17223 77.75C2.72161 78.2994 3.50662 78.535 4.26881 78.3955L21.1878 75.1728C26.9213 78.2306 33.3804 80.0002 39.9218 80.0002C61.8923 80.0002 79.9221 61.9708 79.9221 40.0004C79.9221 18.0299 61.8924 0 39.922 0V0Z" fill="url(#paint0_linear)"/>
<path d="M64.5591 51.3506C64.1928 49.0916 62.8105 47.2102 60.7642 46.187L53.3209 42.4654C52.4168 42.01 51.3251 42.1862 50.6156 42.905L47.814 45.7087C46.6307 45.7911 43.3644 45.5965 39.0157 41.2478C34.6645 36.899 34.4563 33.6213 34.5547 32.4494L37.3585 29.6479C38.0725 28.936 38.2488 27.8443 37.798 26.9425L34.0764 19.4992C33.0533 17.4553 31.1742 16.0706 28.9173 15.7043C26.6445 15.3473 24.4334 16.0545 22.8153 17.6728L18.7044 21.7836C17.3426 23.1455 16.6102 24.9674 16.6399 26.9197C16.7177 31.4172 18.4343 40.5543 29.0706 51.1928C38.7203 60.8426 48.2259 62.9895 53.037 63.4106C55.0976 63.5917 57.1637 62.8752 58.6606 61.3759L62.5905 57.4482C64.2089 55.8299 64.9253 53.6074 64.5591 51.3506Z" fill="url(#paint1_linear)"/>
</g>
<defs>
<linearGradient id="paint0_linear" x1="40.0001" y1="80" x2="40.0001" y2="0" gradientUnits="userSpaceOnUse">
<stop stop-color="#00B59C"/>
<stop offset="1" stop-color="#9CFFAC"/>
</linearGradient>
<linearGradient id="paint1_linear" x1="40.6461" y1="63.4381" x2="40.6461" y2="15.6137" gradientUnits="userSpaceOnUse">
<stop stop-color="#C3FFE8"/>
<stop offset="0.9973" stop-color="#F0FFF4"/>
</linearGradient>
<clipPath id="clip0">
<rect width="80" height="80" fill="white"/>
</clipPath>
</defs>
</svg>
